<svg xmlns="http://www.w3.org/2000/svg" width="340" height="200" viewBox="0 0 340 200" font-family="'Segoe UI', Ubuntu, Sans-Serif">
  <rect x="0.5" y="0.5" width="339" height="199" rx="6" fill="#282a36" stroke="#282a36" stroke-opacity="1.00"/>
  <text x="20" y="30" font-size="15" font-weight="600" fill="#ff79c6">Most Commit Language (last year)</text>
  <rect x="20" y="47" width="10" height="10" fill="#3178c6" stroke="#282a36" stroke-width="1"/>
  <text x="36" y="55" font-size="11" fill="#ffb86c">TypeScript 27.41%</text>
  <rect x="20" y="67" width="10" height="10" fill="#3572A5" stroke="#282a36" stroke-width="1"/>
  <text x="36" y="75" font-size="11" fill="#ffb86c">Python 23.33%</text>
  <rect x="20" y="87" width="10" height="10" fill="#b07219" stroke="#282a36" stroke-width="1"/>
  <text x="36" y="95" font-size="11" fill="#ffb86c">Java 20.26%</text>
  <rect x="20" y="107" width="10" height="10" fill="#f1e05a" stroke="#282a36" stroke-width="1"/>
  <text x="36" y="115" font-size="11" fill="#ffb86c">JavaScript 15.10%</text>
  <rect x="20" y="127" width="10" height="10" fill="#e34c26" stroke="#282a36" stroke-width="1"/>
  <text x="36" y="135" font-size="11" fill="#ffb86c">HTML 11.11%</text>
  <rect x="20" y="147" width="10" height="10" fill="#336790" stroke="#282a36" stroke-width="1"/>
  <text x="36" y="155" font-size="11" fill="#ffb86c">PLpgSQL 2.08%</text>
  <rect x="20" y="167" width="10" height="10" fill="#bd93f9" stroke="#282a36" stroke-width="1"/>
  <text x="36" y="175" font-size="11" fill="#ffb86c">Other 0.70%</text>
  <path d="M250.00,55.00 A55.00,55.00 0 0 1 304.37,118.30 L279.66,114.53 A30.00,30.00 0 0 0 250.00,80.00 Z" fill="#3178c6" stroke="#282a36" stroke-width="1.5"/>
  <path d="M304.37,118.30 A55.00,55.00 0 0 1 247.43,164.94 L248.60,139.97 A30.00,30.00 0 0 0 279.66,114.53 Z" fill="#3572A5" stroke="#282a36" stroke-width="1.5"/>
  <path d="M247.43,164.94 A55.00,55.00 0 0 1 196.72,123.66 L220.94,117.45 A30.00,30.00 0 0 0 248.60,139.97 Z" fill="#b07219" stroke="#282a36" stroke-width="1.5"/>
  <path d="M196.72,123.66 A55.00,55.00 0 0 1 207.85,74.66 L227.01,90.73 A30.00,30.00 0 0 0 220.94,117.45 Z" fill="#f1e05a" stroke="#282a36" stroke-width="1.5"/>
  <path d="M207.85,74.66 A55.00,55.00 0 0 1 240.43,55.84 L244.78,80.46 A30.00,30.00 0 0 0 227.01,90.73 Z" fill="#e34c26" stroke="#282a36" stroke-width="1.5"/>
  <path d="M240.43,55.84 A55.00,55.00 0 0 1 247.58,55.05 L248.68,80.03 A30.00,30.00 0 0 0 244.78,80.46 Z" fill="#336790" stroke="#282a36" stroke-width="1.5"/>
  <path d="M247.58,55.05 A55.00,55.00 0 0 1 250.00,55.00 L250.00,80.00 A30.00,30.00 0 0 0 248.68,80.03 Z" fill="#bd93f9" stroke="#282a36" stroke-width="1.5"/>
</svg>