<svg xmlns="http://www.w3.org/2000/svg" width="340" height="200" viewBox="0 0 340 200" font-family="'Segoe UI', Ubuntu, Sans-Serif">
  <rect x="0.5" y="0.5" width="339" height="199" rx="6" fill="#282a36" stroke="#282a36" stroke-opacity="1.00"/>
  <text x="20" y="30" font-size="15" font-weight="600" fill="#ff79c6">Most Commit Language (all time)</text>
  <rect x="20" y="47" width="10" height="10" fill="#e34c26" stroke="#282a36" stroke-width="1"/>
  <text x="36" y="55" font-size="11" fill="#ffb86c">HTML 20.46%</text>
  <rect x="20" y="67" width="10" height="10" fill="#3178c6" stroke="#282a36" stroke-width="1"/>
  <text x="36" y="75" font-size="11" fill="#ffb86c">TypeScript 20.46%</text>
  <rect x="20" y="87" width="10" height="10" fill="#f1e05a" stroke="#282a36" stroke-width="1"/>
  <text x="36" y="95" font-size="11" fill="#ffb86c">JavaScript 18.62%</text>
  <rect x="20" y="107" width="10" height="10" fill="#3572A5" stroke="#282a36" stroke-width="1"/>
  <text x="36" y="115" font-size="11" fill="#ffb86c">Python 17.91%</text>
  <rect x="20" y="127" width="10" height="10" fill="#b07219" stroke="#282a36" stroke-width="1"/>
  <text x="36" y="135" font-size="11" fill="#ffb86c">Java 15.12%</text>
  <rect x="20" y="147" width="10" height="10" fill="#663399" stroke="#282a36" stroke-width="1"/>
  <text x="36" y="155" font-size="11" fill="#ffb86c">CSS 4.47%</text>
  <rect x="20" y="167" width="10" height="10" fill="#bd93f9" stroke="#282a36" stroke-width="1"/>
  <text x="36" y="175" font-size="11" fill="#ffb86c">Other 2.96%</text>
  <path d="M250.00,55.00 A55.00,55.00 0 0 1 302.78,94.52 L278.79,101.56 A30.00,30.00 0 0 0 250.00,80.00 Z" fill="#e34c26" stroke="#282a36" stroke-width="1.5"/>
  <path d="M302.78,94.52 A55.00,55.00 0 0 1 279.71,156.29 L266.20,135.25 A30.00,30.00 0 0 0 278.79,101.56 Z" fill="#3178c6" stroke="#282a36" stroke-width="1.5"/>
  <path d="M279.71,156.29 A55.00,55.00 0 0 1 218.98,155.42 L233.08,134.78 A30.00,30.00 0 0 0 266.20,135.25 Z" fill="#f1e05a" stroke="#282a36" stroke-width="1.5"/>
  <path d="M218.98,155.42 A55.00,55.00 0 0 1 195.65,101.58 L220.35,105.41 A30.00,30.00 0 0 0 233.08,134.78 Z" fill="#3572A5" stroke="#282a36" stroke-width="1.5"/>
  <path d="M195.65,101.58 A55.00,55.00 0 0 1 225.25,60.88 L236.50,83.21 A30.00,30.00 0 0 0 220.35,105.41 Z" fill="#b07219" stroke="#282a36" stroke-width="1.5"/>
  <path d="M225.25,60.88 A55.00,55.00 0 0 1 239.83,55.95 L244.45,80.52 A30.00,30.00 0 0 0 236.50,83.21 Z" fill="#663399" stroke="#282a36" stroke-width="1.5"/>
  <path d="M239.83,55.95 A55.00,55.00 0 0 1 250.00,55.00 L250.00,80.00 A30.00,30.00 0 0 0 244.45,80.52 Z" fill="#bd93f9" stroke="#282a36" stroke-width="1.5"/>
</svg>