<svg xmlns="http://www.w3.org/2000/svg" width="340" height="200" viewBox="0 0 340 200" font-family="'Segoe UI', Ubuntu, Sans-Serif">
  <rect x="0.5" y="0.5" width="339" height="199" rx="6" fill="#282a36" stroke="#282a36" stroke-opacity="1.00"/>
  <text x="20" y="30" font-size="15" font-weight="600" fill="#ff79c6">Repos Per Language</text>
  <rect x="20" y="47" width="10" height="10" fill="#f1e05a" stroke="#282a36" stroke-width="1"/>
  <text x="36" y="55" font-size="11" fill="#ffb86c">JavaScript 33.33%</text>
  <rect x="20" y="67" width="10" height="10" fill="#663399" stroke="#282a36" stroke-width="1"/>
  <text x="36" y="75" font-size="11" fill="#ffb86c">CSS 16.67%</text>
  <rect x="20" y="87" width="10" height="10" fill="#e34c26" stroke="#282a36" stroke-width="1"/>
  <text x="36" y="95" font-size="11" fill="#ffb86c">HTML 16.67%</text>
  <rect x="20" y="107" width="10" height="10" fill="#3178c6" stroke="#282a36" stroke-width="1"/>
  <text x="36" y="115" font-size="11" fill="#ffb86c">TypeScript 16.67%</text>
  <rect x="20" y="127" width="10" height="10" fill="#3572A5" stroke="#282a36" stroke-width="1"/>
  <text x="36" y="135" font-size="11" fill="#ffb86c">Python 11.11%</text>
  <rect x="20" y="147" width="10" height="10" fill="#b07219" stroke="#282a36" stroke-width="1"/>
  <text x="36" y="155" font-size="11" fill="#ffb86c">Java 5.56%</text>
  <path d="M250.00,55.00 A55.00,55.00 0 0 1 297.63,137.50 L275.98,125.00 A30.00,30.00 0 0 0 250.00,80.00 Z" fill="#f1e05a" stroke="#282a36" stroke-width="1.5"/>
  <path d="M297.63,137.50 A55.00,55.00 0 0 1 250.00,165.00 L250.00,140.00 A30.00,30.00 0 0 0 275.98,125.00 Z" fill="#663399" stroke="#282a36" stroke-width="1.5"/>
  <path d="M250.00,165.00 A55.00,55.00 0 0 1 202.37,137.50 L224.02,125.00 A30.00,30.00 0 0 0 250.00,140.00 Z" fill="#e34c26" stroke="#282a36" stroke-width="1.5"/>
  <path d="M202.37,137.50 A55.00,55.00 0 0 1 202.37,82.50 L224.02,95.00 A30.00,30.00 0 0 0 224.02,125.00 Z" fill="#3178c6" stroke="#282a36" stroke-width="1.5"/>
  <path d="M202.37,82.50 A55.00,55.00 0 0 1 231.19,58.32 L239.74,81.81 A30.00,30.00 0 0 0 224.02,95.00 Z" fill="#3572A5" stroke="#282a36" stroke-width="1.5"/>
  <path d="M231.19,58.32 A55.00,55.00 0 0 1 250.00,55.00 L250.00,80.00 A30.00,30.00 0 0 0 239.74,81.81 Z" fill="#b07219" stroke="#282a36" stroke-width="1.5"/>
</svg>